<?xml version="1.0" encoding="UTF-8"?><svg id="Layer_1" xmlns="http://www.w3.org/2000/svg" viewBox="0 0 272.55 37.7434"><defs><style>.cls-1{fill:#23384d;stroke-width:0px;}</style></defs><g id="Layer_2"><g id="Layer_1-2"><path class="cls-1" d="M61.14,4.25c-.5877-.5757-1.2627-1.055-2-1.42-.8315-.3836-1.7344-.588-2.65-.6-3.4131.0091-6.1726,2.7833-6.1635,6.1964.0002.0645.0014.1291.0035.1936-.0664,3.3904,2.6282,6.1926,6.0186,6.259.0571.0011.1143.0014.1714.001.992-.0143,1.9672-.2573,2.85-.71.651-.3393,1.2476-.7741,1.77-1.29v2.12c-1.3473.9667-2.9618,1.4909-4.62,1.5-4.2846.1001-7.8391-3.292-7.9392-7.5766-.0025-.1078-.0028-.2156-.0008-.3234-.1119-4.3064,3.2884-7.8881,7.5947-8,.1351-.0035.2702-.0035.4053,0,1.6384-.0198,3.2351.516,4.53,1.52l.03,2.13Z"/><path class="cls-1" d="M66,7.11h7.86V.87h1.71v15.34h-1.74v-7.5h-7.83v7.5h-1.7V.87h1.7v6.24Z"/><path class="cls-1" d="M81.2.87v15.34h-1.71V.87h1.71Z"/><path class="cls-1" d="M92,3.91c-.2186-.4379-.521-.8286-.89-1.15-.5007-.366-1.1102-.5527-1.73-.53-1.2922-.1216-2.4382.8273-2.5599,2.1195-.0078.0833-.0112.1669-.0101.2505-.0328.5088.1789,1.0028.57,1.33.4735.4233,1.0233.7525,1.62.97l1.47.64c.8713.3343,1.6719.8296,2.36,1.46.7451.7289,1.1481,1.7383,1.11,2.78-.1183,2.7202-2.4193,4.8295-5.1395,4.7112-1.1278-.049-2.2046-.4836-3.0505-1.2312-.7201-.7562-1.2153-1.6981-1.43-2.72l1.68-.47c.0877.7471.4097,1.4473.92,2,.589.5744,1.3879.8817,2.21.85,1.6044.0947,2.9817-1.129,3.0765-2.7334.0052-.0888.0064-.1777.0035-.2666.0266-.6802-.2522-1.3367-.76-1.79-.5544-.4754-1.1826-.8571-1.86-1.13l-1.38-.64c-.7357-.3034-1.4125-.7332-2-1.27-.6871-.6441-1.0533-1.5597-1-2.5,0-2.37,1.81-4,4.3-4,.8723-.0358,1.7335.2058,2.46.69.596.4521,1.0731,1.0424,1.39,1.72l-1.36.91Z"/><path class="cls-1" d="M98.77,7.11h7.86V.87h1.7v15.34h-1.7v-7.5h-7.86v7.5h-1.71V.87h1.71v6.24Z"/><path class="cls-1" d="M111.46,8.55c0-4.4183,3.5817-8,8-8s8,3.5817,8,8-3.5817,8-8,8-8-3.5817-8-8ZM113.21,8.55c-.0014,3.4407,2.7868,6.2311,6.2275,6.2325,3.4407.0014,6.2311-2.7868,6.2325-6.2275v-.005c.0014-3.4407-2.7868-6.2311-6.2275-6.2325s-6.2311,2.7868-6.2325,6.2275v.005Z"/><path class="cls-1" d="M132.25.87v13.73h4.23v1.61h-5.93V.87h1.7Z"/><path class="cls-1" d="M138.72,16.21l2.55-16.21,5.89,13,6-13,2.39,16.21h-1.75l-1.45-10.67-5.22,11.32-5.13-11.32-1.52,10.67h-1.76Z"/><path class="cls-1" d="M178.14,4.25c-.5877-.5757-1.2627-1.055-2-1.42-.8315-.3836-1.7344-.588-2.65-.6-3.4131.0091-6.1726,2.7833-6.1636,6.1964.0002.0645.0014.1291.0036.1936-.0664,3.3904,2.6282,6.1926,6.0186,6.259.0571.0011.1143.0014.1714.001.992-.0143,1.9673-.2573,2.85-.71.651-.3393,1.2477-.7741,1.77-1.29v2.12c-1.3473.9667-2.9618,1.4909-4.62,1.5-4.2846.1-7.839-3.2922-7.939-7.5768-.0024-.1044-.0028-.2088-.001-.3132-.1119-4.3064,3.2884-7.8881,7.5947-8,.1351-.0035.2702-.0035.4053,0,1.6384-.0198,3.2351.516,4.53,1.52l.03,2.12Z"/><path class="cls-1" d="M183,7.11h7.86V.87h1.71v15.34h-1.71v-7.5h-7.86v7.5h-1.7V.87h1.7v6.24Z"/><path class="cls-1" d="M198.2.87v15.34h-1.71V.87h1.71Z"/><path class="cls-1" d="M209,3.91c-.2186-.4379-.521-.8286-.89-1.15-.5007-.366-1.1102-.5527-1.73-.53-1.2922-.1216-2.4382.8273-2.5599,2.1195-.0078.0833-.0112.1669-.0101.2505-.0328.5088.1789,1.0028.57,1.33.468.4329,1.0145.7724,1.61,1l1.47.64c.8725.3242,1.6764.8093,2.37,1.43.7451.7289,1.1481,1.7383,1.11,2.78-.1183,2.7202-2.4193,4.8295-5.1395,4.7112-1.1278-.049-2.2046-.4836-3.0505-1.2312-.7201-.7562-1.2153-1.6981-1.43-2.72l1.66-.46c.0877.7471.4097,1.4473.92,2,.589.5744,1.388.8817,2.21.85,1.6044.0947,2.9818-1.129,3.0765-2.7334.0052-.0888.0064-.1777.0035-.2666.0266-.6802-.2522-1.3367-.76-1.79-.5476-.4771-1.169-.8621-1.84-1.14l-1.38-.64c-.7533-.2982-1.4475-.7283-2.05-1.27-.6871-.6441-1.0533-1.5597-1-2.5,0-2.37,1.81-4,4.3-4,.8723-.0358,1.7336.2058,2.46.69.6143.446,1.1089,1.0368,1.44,1.72l-1.36.91Z"/><path class="cls-1" d="M215.77,7.11h7.86V.87h1.7v15.34h-1.7v-7.5h-7.86v7.5h-1.71V.87h1.71v6.24Z"/><path class="cls-1" d="M228.46,8.55c0-4.4183,3.5817-8,8-8s8,3.5817,8,8-3.5817,8-8,8-8-3.5817-8-8ZM230.21,8.55c0,3.4407,2.7893,6.23,6.23,6.23s6.23-2.7893,6.23-6.23-2.7893-6.23-6.23-6.23-6.23,2.7893-6.23,6.23Z"/><path class="cls-1" d="M249.25.87v13.73h4.23v1.61h-5.93V.87h1.7Z"/><path class="cls-1" d="M255.72,16.21l2.55-16.21,5.89,13,6-13,2.39,16.21h-1.75l-1.45-10.67-5.22,11.32-5.13-11.32-1.52,10.67h-1.76Z"/><path class="cls-1" d="M61.21,31.85c-.6134.8051-1.2817,1.5669-2,2.28l2.58,3.33h-2.08l-1.65-2.14c-1.2998,1.4111-3.0869,2.2761-5,2.42-2.3564.0939-4.3427-1.7402-4.4366-4.0966-.0022-.0544-.0033-.1089-.0034-.1634.0082-1.2007.5067-2.3459,1.38-3.17.7997-.7144,1.6633-1.3537,2.58-1.91-.8726-.8874-1.4099-2.0503-1.52-3.29-.0412-1.7503,1.3443-3.2025,3.0945-3.2437.0818-.0019.1637-.0007.2455.0037,1.6792-.1333,3.1485,1.1199,3.2817,2.7991.0087.1101.0115.2205.0082.3309-.018,1.0987-.5466,2.1264-1.43,2.78-.39.35-.25.17-1.24,1l3.2,4.12c.6222-.6287,1.2034-1.2968,1.74-2l1.25.95ZM53.62,29.67c-.771.4532-1.4946.9825-2.16,1.58-.6865.5267-1.0863,1.3448-1.08,2.21-.0392,1.4575,1.1106,2.6708,2.5681,2.71.0473.0013.0946.0013.1419,0,1.63,0,3.36-1.56,3.93-2.11l-3.4-4.39ZM54,27.48l1-.78c.6129-.3813.9897-1.0482,1-1.77.0184-.8614-.665-1.5745-1.5264-1.5929-.0446-.0009-.0891,0-.1336.0029-.9011.0217-1.6203.7586-1.62,1.66.0257.5629.2447,1.0997.62,1.52l.66.96Z"/><path class="cls-1" d="M73.4,28.7l6.53-6.58h2.3l-7.18,7.16,7.41,8.18h-2.35l-6.28-7-.43.44v6.6h-1.7v-15.38h1.7v6.58Z"/><path class="cls-1" d="M86.46,22.12v15.34h-1.7v-15.34h1.7Z"/><path class="cls-1" d="M92.12,22.12v13.73h4.23v1.61h-5.93v-15.34h1.7Z"/><path class="cls-1" d="M101.66,22.12c1.3792-.1311,2.758.2537,3.87,1.08.921.8422,1.4317,2.0424,1.4,3.29,0,2.16-1.36,4.3-4.85,4.3h-1.5v6.67h-1.7v-15.34h2.78ZM100.58,29.18h1.42c2,0,3.24-1,3.24-2.78,0-2.44-2.28-2.67-3.38-2.67h-1.27l-.01,5.45Z"/><path class="cls-1" d="M116.64,33.14h-6.53l-1.84,4.32h-1.89l7.06-16.07,6.88,16.07h-1.89l-1.79-4.32ZM116,31.53l-2.58-6.14-2.62,6.14h5.2Z"/><path class="cls-1" d="M125.22,23.73v13.73h-1.71v-13.73h-3.72v-1.61h9.15v1.61h-3.72Z"/><path class="cls-1" d="M133.93,22.12c1.2993-.0823,2.5947.2129,3.73.85,1.0988.7809,1.7304,2.0629,1.68,3.41.1281,2.2054-1.556,4.0971-3.7614,4.2252-.0362.0021-.0724.0037-.1086.0048l4.88,6.85h-2.07l-4.67-6.71h-.44v6.71h-1.7v-15.34h2.46ZM133.17,29.23h1.08c2.12,0,3.39-1,3.39-2.81.063-.9229-.4122-1.7993-1.22-2.25-.6861-.3356-1.4477-.4872-2.21-.44h-1l-.04,5.5Z"/><path class="cls-1" d="M144.72,22.12v15.34h-1.72v-15.34h1.72Z"/><path class="cls-1" d="M160.4,25.5c-.5858-.578-1.2612-1.0575-2-1.42-.8276-.3845-1.7275-.589-2.64-.6-3.4131.0091-6.1726,2.7833-6.1636,6.1964.0002.0645.0014.1291.0036.1936-.0663,3.3904,2.6283,6.1926,6.0187,6.259.0538.0011.1075.0014.1613.001.9922-.0122,1.968-.2553,2.85-.71.654-.3345,1.2513-.7698,1.77-1.29v2.11c-1.3473.9667-2.9618,1.4909-4.62,1.5-4.279.1001-7.829-3.2875-7.9292-7.5666-.0025-.1078-.0028-.2156-.0008-.3234-.1176-4.3007,3.2735-7.8824,7.5742-8,.1419-.0039.2839-.0039.4258,0,1.6384-.0198,3.2351.516,4.53,1.52l.02,2.13Z"/><path class="cls-1" d="M165.24,28.7l6.53-6.58h2.3l-7.18,7.16,7.41,8.18h-2.3l-6.28-7-.43.44v6.6h-1.71v-15.38h1.71l-.05,6.58Z"/><path class="cls-1" d="M185,26.12v10.15h3.13v1.19h-4.39v-11.34h1.26Z"/><path class="cls-1" d="M192.31,27.31v10.15h-1.26v-10.15h-2.75v-1.19h6.76v1.19h-2.75Z"/><path class="cls-1" d="M196.76,26.12h2.32c1.5092-.0836,2.9966.3896,4.18,1.33,1.2639,1.0866,1.9725,2.6838,1.93,4.35.0477,1.6825-.6918,3.2909-2,4.35-1.154.9713-2.6475,1.4427-4.15,1.31h-2.3l.02-11.34ZM198,36.27h1.11c1.1656.071,2.3172-.2844,3.24-1,1.0119-.8546,1.5759-2.1263,1.53-3.45,0-2.72-1.9-4.49-4.77-4.49h-1.11v8.94Z"/><path class="cls-1" d="M36.94,8.16v19.22l-8.3-10.29c1.43-1.85,6.49-7.7,7.72-8.59.19-.14.58-.25.58-.34Z"/><path class="cls-1" d="M36.94,1.05v5.62h-.53c-1.53,0-2.83-.09-3.23-.09-.109-.0181-.2119.0556-.23.1646-.0036.0216-.0036.0437,0,.0654v.76c0,.16.09.3.22.3h.46c.44,0,.6.33.3.79s-6.46,8.22-7.19,8.75c-.3836.3186-.8617.5014-1.36.52h-.76v-1.77c0-1.61.18-6.76.18-7.26,0-.79.34-1,1-1h1.4c.16,0,.31-.07.31-.24v-.88c0-.13-.11-.19-.31-.19-.44,0-1.58.09-3.81.09-2.5,0-3.51-.09-3.91-.09-.2,0-.3.06-.3.19v.86c0,.17.13.24.32.24h1.17c.83,0,1,.43,1,.79s.08,6.7.08,7.3v1.76c0,.05-.22,0-.51-.17-1.9592-1.0002-4.1303-1.5147-6.33-1.5-3.0808-.1026-6.0619,1.0993-8.21,3.31-.3.32-.58.66-.84,1-2.8895-1.7099-4.6785-4.8027-4.72-8.16.0042-5.1508,4.1204-9.3559,9.27-9.47,2.6443.0062,5.1719,1.0895,7,3v-3.12c-.9895-.7233-2.1053-1.2557-3.29-1.57h22.82Z"/><path class="cls-1" d="M17.63,17.87c.9955.4218,1.9016,1.0293,2.67,1.79.5616.5782,1.0549,1.2191,1.47,1.91,0,3.29-.06,6.42-.09,6.63s-.3.51-.9.51h-1.36c-.14,0-.23.21-.23.37v.86c0,.17,0,.23.2.23s1.34-.1,4-.1c2.36,0,3.31.1,3.71.1.16,0,.09-.1.09-.23v-.86c0-.13.11-.37-.05-.37h-1.5c-.43,0-.81-.21-.84-.64s-.18-5.23-.18-6.88v-2.53h.79c.5451.0171,1.0648.2342,1.46.61.44.33,6.33,8.17,6.63,8.83.2045.2815.1421.6755-.1393.88-.1133.0823-.2507.1245-.3907.12h-.5c-.14,0-.24-.09-.24,0v.9c-.011.121.0781.228.1991.2391.007.0006.0139.0009.0209.0009.46,0,1.77-.06,4.49-.06v7.52h-16.27c1.5047-1.0127,2.8098-2.2942,3.85-3.78.0576-.1273.0341-.2767-.06-.38l-.54-.46c-.09-.1-.22,0-.38.21-1.7857,2.348-4.591,3.6949-7.54,3.62-2.0827.0591-4.0786-.8357-5.42-2.43-1.893-2.2805-2.9201-5.1562-2.9-8.12-.0063-.8791.0741-1.7567.24-2.62.8597.1959,1.7383.2966,2.62.3,2.4573.0101,4.8511-.7796,6.82-2.25v-3.15l.27-.77Z"/><path class="cls-1" d="M14.83,17.36c.9573-.0098,1.9076.1633,2.8.51l-.25.77c-1.8205,1.8679-4.3023,2.9453-6.91,3-.6055,0-1.2092-.0672-1.8-.2.989-2.5217,3.4523-4.1533,6.16-4.08Z"/><path class="cls-1" d="M8.77,37.7H0v-19.76c1.103,1.8804,2.6829,3.4361,4.58,4.51-.7392,1.6642-1.1077,3.4692-1.08,5.29,0,2.74,1.07,6.43,3.4,8.49.6524.4519,1.2768.9428,1.87,1.47Z"/><path class="cls-1" d="M0,1.05h7.16C4.109,1.801,1.5121,3.7957,0,6.55V1.05Z"/></g></g></svg>